<svg width="91" height="56" viewBox="0 0 91 56" fill="none" xmlns="http://www.w3.org/2000/svg">
<path d="M85.4228 0H21.6032C18.8489 0 16.3559 1.73463 15.2331 4.4324L0 41.0464H85.4228C88.5024 41.0464 91 38.3683 91 35.0661V5.9803C91.0046 2.67811 88.507 0 85.4228 0Z" fill="url(#paint0_linear)"/>
<path d="M33.1563 41.0469H0L33.1563 55.4104V41.0469Z" fill="#10570F"/>
<path d="M36.8186 11.0993H35.1764L35.486 9.63769H40.4383L40.1288 11.0993H38.4952L37.5065 15.7422H35.8299L36.8186 11.0993ZM41.0626 9.63769H42.7392L41.4409 15.7422H39.7643L41.0626 9.63769ZM43.7914 9.63769H45.0983L46.6459 12.7415L47.2994 9.63769H48.976L47.6777 15.7422H46.3536L44.806 12.7415L44.1697 15.7422H42.4932L43.7914 9.63769ZM52.6122 11.0993H50.97L51.2795 9.63769H56.2319L55.9224 11.0993H54.2888L53.3 15.7422H51.6234L52.6122 11.0993ZM58.0857 15.7938C57.587 15.7938 57.1829 15.7021 56.8734 15.5186C56.5696 15.3352 56.346 15.0859 56.2027 14.7706C56.0652 14.4496 55.9964 14.0914 55.9964 13.6959C55.9964 13.5469 56.005 13.3978 56.0222 13.2488C56.0394 13.094 56.0652 12.9364 56.0996 12.7759L56.7702 9.63769H58.4468L57.7762 12.7759C57.7532 12.8848 57.736 12.9909 57.7246 13.094C57.7131 13.1915 57.7074 13.2889 57.7074 13.3864C57.7074 13.5641 57.7303 13.7217 57.7762 13.8593C57.822 13.9968 57.8965 14.1057 57.9997 14.186C58.1029 14.2662 58.2376 14.3063 58.4038 14.3063C58.5758 14.3063 58.7305 14.2662 58.8681 14.186C59.0057 14.1 59.1289 13.9854 59.2378 13.8421C59.3467 13.693 59.4384 13.5268 59.5129 13.3434C59.5874 13.16 59.6448 12.9708 59.6849 12.7759L60.3555 9.63769H62.0321L61.3615 12.7759C61.2698 13.2001 61.1322 13.5956 60.9488 13.9624C60.7654 14.3293 60.5361 14.6503 60.2609 14.9254C59.9858 15.2005 59.6648 15.4155 59.298 15.5702C58.9369 15.7193 58.5328 15.7938 58.0857 15.7938ZM60.7768 10.7382L61.009 9.63769C61.2096 9.63769 61.3844 9.62623 61.5334 9.6033C61.6825 9.57464 61.8057 9.52019 61.9031 9.43994C62.0006 9.3597 62.0608 9.26512 62.0837 9.15621C62.1124 9.04731 62.141 8.9384 62.1697 8.82949H63.2788C63.2501 8.97852 63.2129 9.13615 63.167 9.30238C63.1212 9.4686 63.0495 9.63483 62.9521 9.80105C62.8604 9.96155 62.7257 10.1134 62.548 10.2567C62.4333 10.3485 62.2786 10.4316 62.0837 10.5061C61.8888 10.5749 61.6767 10.6322 61.4475 10.678C61.2239 10.7182 61.0004 10.7382 60.7768 10.7382ZM60.0288 9.1906L58.9283 9.08743L59.5903 7.86653H61.0348L60.0288 9.1906ZM64.2838 15.7938C63.917 15.7938 63.5874 15.7221 63.2951 15.5788C63.0085 15.4355 62.7649 15.2406 62.5642 14.9942C62.3636 14.742 62.2117 14.4611 62.1085 14.1516C62.0054 13.8363 61.9538 13.5125 61.9538 13.18C61.9538 12.8418 62.014 12.5037 62.1343 12.1655C62.2547 11.8216 62.4238 11.4977 62.6416 11.1939C62.8652 10.8844 63.1288 10.6121 63.4326 10.3771C63.7364 10.1364 64.0746 9.94722 64.4472 9.80965C64.8255 9.67208 65.2267 9.6033 65.6509 9.6033C66.2126 9.6033 66.6769 9.72654 67.0437 9.97301C67.4106 10.2138 67.6513 10.5347 67.766 10.936L66.2957 11.8473C66.2671 11.6467 66.1983 11.492 66.0894 11.3831C65.9862 11.2742 65.863 11.1996 65.7197 11.1595C65.5821 11.1137 65.4417 11.0907 65.2984 11.0907C65.0347 11.0907 64.7997 11.1538 64.5933 11.2799C64.3927 11.4003 64.2236 11.5608 64.0861 11.7614C63.9485 11.962 63.8425 12.1769 63.7679 12.4062C63.6992 12.6355 63.6648 12.8562 63.6648 13.0682C63.6648 13.2918 63.6992 13.4981 63.7679 13.6873C63.8425 13.8707 63.9514 14.0197 64.0947 14.1344C64.238 14.249 64.4185 14.3063 64.6363 14.3063C64.7739 14.3063 64.9201 14.2834 65.0748 14.2376C65.2353 14.186 65.3872 14.1057 65.5305 13.9968C65.6738 13.8879 65.7942 13.7417 65.8916 13.5583L67.0867 14.3751C66.909 14.6732 66.6626 14.9283 66.3473 15.1403C66.0378 15.3524 65.6996 15.5158 65.3328 15.6304C64.9659 15.7393 64.6163 15.7938 64.2838 15.7938Z" fill="white"/>
<path d="M24.8066 27.8774C24.3175 27.8774 23.878 27.7818 23.4883 27.5908C23.1061 27.3997 22.7813 27.1399 22.5138 26.8112C22.2463 26.475 22.0438 26.1005 21.9062 25.6878C21.7687 25.2674 21.6999 24.8356 21.6999 24.3924C21.6999 23.9415 21.7801 23.4905 21.9406 23.0396C22.1011 22.5811 22.3266 22.1493 22.617 21.7442C22.9151 21.3315 23.2666 20.9685 23.6717 20.6552C24.0767 20.3342 24.5276 20.082 25.0244 19.8985C25.5288 19.7151 26.0638 19.6234 26.6293 19.6234C27.3783 19.6234 27.9974 19.7877 28.4865 20.1164C28.9756 20.4373 29.2966 20.8653 29.4494 21.4003L27.4891 22.6155C27.4509 22.348 27.3592 22.1416 27.214 21.9964C27.0764 21.8512 26.9121 21.7519 26.7211 21.6984C26.5376 21.6372 26.3504 21.6067 26.1593 21.6067C25.8078 21.6067 25.4944 21.6907 25.2193 21.8589C24.9518 22.0194 24.7263 22.2333 24.5429 22.5008C24.3595 22.7683 24.2181 23.0549 24.1188 23.3606C24.0271 23.6663 23.9812 23.9606 23.9812 24.2433C23.9812 24.5414 24.0271 24.8165 24.1188 25.0687C24.2181 25.3133 24.3633 25.512 24.5544 25.6649C24.7455 25.8177 24.9862 25.8941 25.2766 25.8941C25.46 25.8941 25.6549 25.8636 25.8613 25.8024C26.0753 25.7336 26.2778 25.6266 26.4689 25.4814C26.6599 25.3362 26.8204 25.1413 26.9503 24.8968L28.5438 25.9858C28.3069 26.3833 27.9783 26.7234 27.5579 27.0061C27.1452 27.2889 26.6943 27.5067 26.2052 27.6596C25.7161 27.8048 25.2499 27.8774 24.8066 27.8774ZM32.66 19.6693H34.7121L35.6177 27.8086H33.3479L33.2676 26.2151H31.3188L30.5736 27.8086H28.2923L32.66 19.6693ZM33.2332 24.7248L33.1415 22.2028L31.9607 24.7248H33.2332ZM30.5048 30.2504L30.8717 28.5308H32.8205L32.4537 30.2504H30.5048ZM31.892 18.649L33.4167 17.3306H34.9757L35.9387 18.649L34.735 19.1305L33.9669 18.4082L32.8893 19.1305L31.892 18.649ZM37.9763 19.6693H41.3237C41.7594 19.6693 42.1339 19.7839 42.4472 20.0132C42.7605 20.2348 42.9975 20.5252 43.158 20.8844C43.3261 21.2436 43.4102 21.6219 43.4102 22.0194C43.4102 22.4168 43.3261 22.8104 43.158 23.2001C42.9898 23.5899 42.7567 23.9453 42.4587 24.2663C42.1606 24.5796 41.8167 24.8318 41.4269 25.0229C41.0372 25.2139 40.6206 25.3095 40.1774 25.3095H39.0081L38.4807 27.8086H36.2453L37.9763 19.6693ZM40.441 23.3606C40.5098 23.3606 40.5824 23.3377 40.6588 23.2918C40.7353 23.246 40.8079 23.1772 40.8767 23.0855C40.9531 22.9861 41.0104 22.8639 41.0486 22.7186C41.0945 22.5734 41.1174 22.4015 41.1174 22.2028C41.1174 22.0499 41.0983 21.9315 41.0601 21.8474C41.0219 21.7633 40.976 21.706 40.9225 21.6754C40.869 21.6372 40.8117 21.6181 40.7506 21.6181H39.7991L39.4322 23.3606H40.441ZM47.1004 19.6693H48.8429L50.9064 23.8077L51.7776 19.6693H54.0131L52.282 27.8086H50.5166L48.4531 23.8077L47.6048 27.8086H45.3693L47.1004 19.6693ZM55.4072 19.6693H57.6426L57.0006 22.6728H59.431L60.0729 19.6693H62.3084L60.5774 27.8086H58.3419L59.0183 24.6216H56.5879L55.9116 27.8086H53.6761L55.4072 19.6693ZM65.6746 19.6693H67.7266L68.6322 27.8086H66.3624L66.2821 26.2151H64.3333L63.5881 27.8086H61.3068L65.6746 19.6693ZM66.2477 24.7248L66.156 22.2028L64.9753 24.7248H66.2477ZM63.5193 30.2504L63.8862 28.5308H65.835L65.4682 30.2504H63.5193ZM64.9065 18.649L66.4312 17.3306H67.9902L68.9532 18.649L67.7495 19.1305L66.9814 18.4082L65.9038 19.1305L64.9065 18.649ZM72.206 21.6181H70.0164L70.4291 19.6693H77.0323L76.6196 21.6181H74.4414L73.1231 27.8086H70.8876L72.206 21.6181Z" fill="white"/>
<defs>
<linearGradient id="paint0_linear" x1="54.6" y1="6.84101" x2="7.97625" y2="14.004" gradientUnits="userSpaceOnUse">
<stop stop-color="#1A8917"/>
<stop offset="1" stop-color="#076007"/>
</linearGradient>
</defs>
</svg>
