<svg width="20" height="20" viewBox="0 0 20 20" fill="none" xmlns="http://www.w3.org/2000/svg">
<path fill-rule="evenodd" clip-rule="evenodd" d="M2.57824 2.57897C3.6903 1.46692 5.35437 1.04175 7.49935 1.04175H12.4993C14.6443 1.04175 16.3084 1.46692 17.4205 2.57897C18.5325 3.69103 18.9577 5.3551 18.9577 7.50008V12.5001C18.9577 14.6451 18.5325 16.3091 17.4205 17.4212C16.3084 18.5332 14.6443 18.9584 12.4993 18.9584H7.49935C5.35437 18.9584 3.6903 18.5332 2.57824 17.4212C1.46618 16.3091 1.04102 14.6451 1.04102 12.5001V7.50008C1.04102 5.3551 1.46618 3.69103 2.57824 2.57897ZM3.46212 3.46286C2.69918 4.2258 2.29102 5.47839 2.29102 7.50008V12.5001C2.29102 14.5218 2.69918 15.7744 3.46212 16.5373C4.22507 17.3002 5.47766 17.7084 7.49935 17.7084H12.4993C14.521 17.7084 15.7736 17.3002 16.5366 16.5373C17.2995 15.7744 17.7077 14.5218 17.7077 12.5001V7.50008C17.7077 5.47839 17.2995 4.2258 16.5366 3.46286C15.7736 2.69991 14.521 2.29175 12.4993 2.29175H7.49935C5.47766 2.29175 4.22507 2.69991 3.46212 3.46286Z" fill="#444444"/>
<path fill-rule="evenodd" clip-rule="evenodd" d="M4.34907 4.34981C4.92429 3.77459 5.73634 3.54175 6.66602 3.54175H13.3327C14.2624 3.54175 15.0744 3.77459 15.6496 4.34981C16.2248 4.92502 16.4577 5.73707 16.4577 6.66675V13.3334C16.4577 14.2631 16.2248 15.0751 15.6496 15.6504C15.0744 16.2256 14.2624 16.4584 13.3327 16.4584H6.66602C5.73634 16.4584 4.92429 16.2256 4.34907 15.6504C3.77386 15.0751 3.54102 14.2631 3.54102 13.3334V6.66675C3.54102 5.73707 3.77386 4.92502 4.34907 4.34981ZM5.23296 5.23369C4.97484 5.49181 4.79102 5.92976 4.79102 6.66675V13.3334C4.79102 14.0704 4.97484 14.5084 5.23296 14.7665C5.49107 15.0246 5.92902 15.2084 6.66602 15.2084H13.3327C14.0697 15.2084 14.5076 15.0246 14.7657 14.7665C15.0239 14.5084 15.2077 14.0704 15.2077 13.3334V6.66675C15.2077 5.92976 15.0239 5.49181 14.7657 5.23369C14.5076 4.97557 14.0697 4.79175 13.3327 4.79175H6.66602C5.92902 4.79175 5.49107 4.97557 5.23296 5.23369Z" fill="#444444"/>
<path fill-rule="evenodd" clip-rule="evenodd" d="M3.54102 7.91675C3.54102 7.57157 3.82084 7.29175 4.16602 7.29175H6.23268C7.72786 7.29175 8.94101 8.5049 8.94101 10.0001C8.94101 11.4953 7.72786 12.7084 6.23268 12.7084H4.16602C3.82084 12.7084 3.54102 12.4286 3.54102 12.0834C3.54102 11.7382 3.82084 11.4584 4.16602 11.4584H6.23268C7.0375 11.4584 7.69101 10.8049 7.69101 10.0001C7.69101 9.19526 7.0375 8.54175 6.23268 8.54175H4.16602C3.82084 8.54175 3.54102 8.26193 3.54102 7.91675Z" fill="#444444"/>
<path fill-rule="evenodd" clip-rule="evenodd" d="M12.707 8.3252C12.707 7.98002 12.9869 7.7002 13.332 7.7002H15.832C16.1772 7.7002 16.457 7.98002 16.457 8.3252C16.457 8.67037 16.1772 8.9502 15.832 8.9502H13.332C12.9869 8.9502 12.707 8.67037 12.707 8.3252Z" fill="#444444"/>
<path fill-rule="evenodd" clip-rule="evenodd" d="M12.707 11.6667C12.707 11.3216 12.9869 11.0417 13.332 11.0417H15.832C16.1772 11.0417 16.457 11.3216 16.457 11.6667C16.457 12.0119 16.1772 12.2917 15.832 12.2917H13.332C12.9869 12.2917 12.707 12.0119 12.707 11.6667Z" fill="#444444"/>
<path fill-rule="evenodd" clip-rule="evenodd" d="M5.16602 10.0001C5.16602 9.53984 5.53911 9.16675 5.99935 9.16675H6.08268C6.54292 9.16675 6.91602 9.53984 6.91602 10.0001C6.91602 10.4603 6.54292 10.8334 6.08268 10.8334H5.99935C5.53911 10.8334 5.16602 10.4603 5.16602 10.0001Z" fill="#444444"/>
</svg>
