<svg width="12" height="12" viewBox="0 0 12 12" fill="none" xmlns="http://www.w3.org/2000/svg">
<path d="M1.58594 3.72266L6.00093 6.27765L10.3859 3.73764" stroke="white" stroke-linecap="round" stroke-linejoin="round"/>
<path d="M6 10.8084V6.27344" stroke="white" stroke-linecap="round" stroke-linejoin="round"/>
<path d="M1.19531 4.58626C1.19531 3.89626 1.6903 3.05627 2.2953 2.72127L4.9653 1.23625C5.5353 0.92125 6.4703 0.92125 7.0403 1.23625L9.71031 2.72127C10.3153 3.05627 10.8103 3.89626 10.8103 4.58626V7.41127C10.8103 8.10127 10.3153 8.94126 9.71031 9.27626L7.0403 10.7613C6.4703 11.0763 5.5353 11.0763 4.9653 10.7613L2.2953 9.27626C1.6903 8.94126 1.19531 8.10127 1.19531 7.41127V7.00126" stroke="white" stroke-linecap="round" stroke-linejoin="round"/>
<path d="M8.50085 6.62079V4.7908L5.46585 3.0358L4.94086 2.73578L3.75586 2.05078" stroke="white" stroke-linecap="round" stroke-linejoin="round"/>
</svg>
