<svg width="24" height="25" viewBox="0 0 24 25" fill="none" xmlns="http://www.w3.org/2000/svg">
<path d="M3.16992 7.47266L11.9999 12.5826L20.7699 7.50262" stroke="#076007" stroke-width="1.5" stroke-linecap="round" stroke-linejoin="round"/>
<path d="M12 21.6442V12.5742" stroke="#076007" stroke-width="1.5" stroke-linecap="round" stroke-linejoin="round"/>
<path d="M2.39062 9.20376C2.39062 7.82376 3.38061 6.14378 4.59061 5.47378L9.9306 2.50375C11.0706 1.87375 12.9406 1.87375 14.0806 2.50375L19.4206 5.47378C20.6306 6.14378 21.6206 7.82376 21.6206 9.20376V14.8538C21.6206 16.2338 20.6306 17.9138 19.4206 18.5838L14.0806 21.5538C12.9406 22.1838 11.0706 22.1838 9.9306 21.5538L4.59061 18.5838C3.38061 17.9138 2.39062 16.2338 2.39062 14.8538V14.0338" stroke="#076007" stroke-width="1.5" stroke-linecap="round" stroke-linejoin="round"/>
<path d="M17.0017 13.2728V9.61285L10.9317 6.10284L9.88171 5.50281L7.51172 4.13281" stroke="#076007" stroke-width="1.5" stroke-linecap="round" stroke-linejoin="round"/>
</svg>
