<svg width="24" height="25" viewBox="0 0 24 25" fill="none" xmlns="http://www.w3.org/2000/svg">
<path d="M3.16992 7.83594L11.9999 12.9459L20.7699 7.86591" stroke="#292D32" stroke-width="1.5" stroke-linecap="round" stroke-linejoin="round"/>
<path d="M12 22.0075V12.9375" stroke="#292D32" stroke-width="1.5" stroke-linecap="round" stroke-linejoin="round"/>
<path d="M2.39062 9.56704C2.39062 8.18704 3.38061 6.50706 4.59061 5.83706L9.9306 2.86703C11.0706 2.23703 12.9406 2.23703 14.0806 2.86703L19.4206 5.83706C20.6306 6.50706 21.6206 8.18704 21.6206 9.56704V15.2171C21.6206 16.5971 20.6306 18.277 19.4206 18.947L14.0806 21.9171C12.9406 22.5471 11.0706 22.5471 9.9306 21.9171L4.59061 18.947C3.38061 18.277 2.39062 16.5971 2.39062 15.2171V14.3971" stroke="#292D32" stroke-width="1.5" stroke-linecap="round" stroke-linejoin="round"/>
<path d="M17.0017 13.6361V9.97614L10.9317 6.46613L9.88171 5.86609L7.51172 4.49609" stroke="#292D32" stroke-width="1.5" stroke-linecap="round" stroke-linejoin="round"/>
</svg>
