<svg width="20" height="20" viewBox="0 0 20 20" fill="none" xmlns="http://www.w3.org/2000/svg">
<g clip-path="url(#clip0)">
<path fill-rule="evenodd" clip-rule="evenodd" d="M6.69972 0.381888C8.87045 -0.127296 11.1296 -0.127296 13.3003 0.381887C16.4351 1.11722 18.8828 3.56491 19.6181 6.69972C20.1273 8.87045 20.1273 11.1296 19.6181 13.3003C18.8828 16.4351 16.4351 18.8828 13.3003 19.6181C11.1296 20.1273 8.87045 20.1273 6.69972 19.6181C3.56491 18.8828 1.11722 16.4351 0.381889 13.3003C-0.127296 11.1296 -0.127296 8.87045 0.381889 6.69972C1.11722 3.5649 3.5649 1.11722 6.69972 0.381888ZM13.3916 8.30812C13.6321 8.05045 13.6181 7.64661 13.3605 7.40612C13.1028 7.16562 12.699 7.17955 12.4585 7.43722L9.1864 10.943L7.5262 9.28279C7.27697 9.03356 6.87289 9.03356 6.62366 9.28279C6.37443 9.53202 6.37443 9.9361 6.62366 10.1853L8.75096 12.3126C8.87334 12.435 9.04018 12.5024 9.21323 12.4995C9.38628 12.4965 9.55069 12.4233 9.66878 12.2968L13.3916 8.30812Z" fill="#e9750e"/>
</g>
<defs>
<clipPath id="clip0">
<rect width="20" height="20" fill="white"/>
</clipPath>
</defs>
</svg>
