<svg width="48" height="48" viewBox="0 0 48 48" fill="none" xmlns="http://www.w3.org/2000/svg">
<rect x="16" y="16" width="18" height="16" fill="white"/>
<path fill-rule="evenodd" clip-rule="evenodd" d="M18.0595 6.6874C21.9668 5.77087 26.0332 5.77087 29.9405 6.6874C35.5832 8.01099 39.989 12.4168 41.3126 18.0595C42.2291 21.9668 42.2291 26.0332 41.3126 29.9405C39.989 35.5832 35.5832 39.989 29.9405 41.3126C26.0332 42.2291 21.9668 42.2291 18.0595 41.3126C12.4168 39.989 8.01099 35.5832 6.6874 29.9405C5.77087 26.0332 5.77087 21.9668 6.6874 18.0595C8.01099 12.4168 12.4168 8.01099 18.0595 6.6874ZM30.1048 20.9546C30.5377 20.4908 30.5126 19.7639 30.0488 19.331C29.585 18.8981 28.8581 18.9232 28.4252 19.387L22.5355 25.6974L19.5472 22.709C19.0985 22.2604 18.3712 22.2604 17.9226 22.709C17.474 23.1576 17.474 23.885 17.9226 24.3336L21.7517 28.1627C21.972 28.383 22.2723 28.5044 22.5838 28.499C22.8953 28.4937 23.1913 28.362 23.4038 28.1343L30.1048 20.9546Z" fill="#1A8917"/>
</svg>
