<svg width="43" height="34" viewBox="0 0 43 34" fill="none" xmlns="http://www.w3.org/2000/svg">
<path d="M37.4918 11.9399C38.0615 11.1757 37.8754 10.0903 37.0838 9.55947L36.2992 9.03337C35.5614 8.53862 34.5653 8.70941 34.0344 9.42166L23.4067 23.6814V5.86723C23.4067 4.94669 24.153 4.20044 25.0735 4.20044H32.0319C32.3625 4.20044 32.6857 4.29876 32.9603 4.4829L38.369 8.11012C39.1067 8.60478 40.1026 8.43421 40.6335 7.72228L41.1546 7.02365C41.7245 6.25947 41.5386 5.17383 40.7468 4.64285L34.3441 0.348893C34.0695 0.164737 33.7464 0.0664062 33.4157 0.0664062H8.78648C8.45585 0.0664062 8.13269 0.164737 7.8581 0.348893L1.45474 4.64329C0.663249 5.1741 0.477145 6.25929 1.04655 7.02348L1.56662 7.72147C2.09737 8.43379 3.09349 8.60471 3.83134 8.11006L9.24201 4.48276C9.51656 4.29871 9.83963 4.20044 10.1702 4.20044H17.1287C18.0493 4.20044 18.7955 4.94669 18.7955 5.86723V23.6814L8.16778 9.42166C7.63694 8.7094 6.64079 8.53861 5.903 9.03336L5.11846 9.55947C4.32683 10.0903 4.14077 11.1757 4.71038 11.9399L9.33852 18.1491L2.07504 26.4793C1.44793 27.1985 1.55146 28.2964 2.30196 28.8857L3.03186 29.4588C3.7297 30.0068 4.73447 29.912 5.31755 29.2432L11.9427 21.6447L19.7646 32.141C20.4311 33.0354 21.7711 33.0354 22.4376 32.141L30.2595 21.6447L36.8827 29.2433C37.4656 29.9121 38.4702 30.007 39.1681 29.4594L39.8994 28.8856C40.6503 28.2964 40.754 27.1982 40.1268 26.4788L32.8637 18.1491L37.4918 11.9399Z" fill="white"/>
</svg>
