<svg width="25" height="25" viewBox="0 0 25 25" fill="none" xmlns="http://www.w3.org/2000/svg">
<path d="M17.9849 21.3663L7.98487 21.3793C4.33488 21.384 2.23216 19.2867 2.22744 15.6367L2.21838 8.63671C2.21366 4.98672 4.31094 2.884 7.96093 2.87928L17.9609 2.86634C21.6109 2.86161 23.7136 4.95889 23.7184 8.60889L23.7274 15.6089C23.7321 19.2589 21.6349 21.3616 17.9849 21.3663ZM7.96287 4.37928C5.10288 4.38298 3.71468 5.77478 3.71838 8.63477L3.72744 15.6348C3.73114 18.4948 5.12293 19.883 7.98293 19.8793L17.9829 19.8663C20.8429 19.8626 22.2311 18.4708 22.2274 15.6108L22.2184 8.61083C22.2147 5.75083 20.8229 4.36263 17.9629 4.36634L7.96287 4.37928Z" fill="white"/>
<path d="M12.9735 12.9934C12.1335 12.9945 11.2832 12.7356 10.6325 12.2064L7.49928 9.71046C7.17894 9.45088 7.11834 8.98095 7.37792 8.66062C7.63751 8.34028 8.10744 8.27968 8.42777 8.53926L11.561 11.0352C12.3218 11.6442 13.6118 11.6426 14.371 11.0316L17.4978 8.52753C17.8174 8.26711 18.2975 8.31649 18.5479 8.64616C18.8083 8.96583 18.759 9.44589 18.4293 9.69632L15.3025 12.2004C14.6632 12.7312 13.8135 12.9923 12.9735 12.9934Z" fill="white"/>
</svg>
