<svg width="25" height="25" viewBox="0 0 25 25" fill="none" xmlns="http://www.w3.org/2000/svg">
<path fill-rule="evenodd" clip-rule="evenodd" d="M1.96542 10.5605C1.95863 5.31386 6.20644 1.05504 11.4531 1.04825C16.6998 1.04146 20.9586 5.28927 20.9654 10.536C20.9683 12.7991 20.1797 14.8784 18.8607 16.512L22.5385 20.1804C22.9296 20.5704 22.9304 21.2035 22.5404 21.5946C22.1504 21.9856 21.5172 21.9864 21.1262 21.5964L17.4483 17.928C15.8181 19.2512 13.7408 20.0453 11.4777 20.0482C6.23102 20.055 1.97221 15.8072 1.96542 10.5605ZM11.4557 3.04825C7.31359 3.05361 3.96006 6.41584 3.96542 10.558C3.97078 14.7001 7.33301 18.0536 11.4751 18.0482C15.6172 18.0429 18.9708 14.6807 18.9654 10.5385C18.96 6.39643 15.5978 3.04289 11.4557 3.04825ZM7.92466 6.51724C8.82725 5.61238 10.0779 5.05004 11.4583 5.04825C12.8387 5.04646 14.0908 5.60556 14.9957 6.50812C15.3867 6.89813 15.3875 7.5313 14.9975 7.92233C14.6075 8.31336 13.9743 8.31418 13.5833 7.92416C13.0386 7.38089 12.2896 7.04718 11.4609 7.04825C10.6322 7.04932 9.88399 7.38497 9.34065 7.92967C8.95062 8.32069 8.31746 8.32149 7.92644 7.93145C7.53542 7.54142 7.53463 6.90826 7.92466 6.51724Z" fill="white"/>
</svg>
