<svg width="26" height="25" viewBox="0 0 26 25" fill="none" xmlns="http://www.w3.org/2000/svg">
<path d="M14.5114 17.5905L12.514 19.5931C10.5835 21.5286 7.4495 21.5326 5.514 19.6022C3.57851 17.6717 3.57445 14.5377 5.50494 12.6022L7.50236 10.5996C9.43285 8.66408 12.5669 8.66002 14.5023 10.5905C14.8091 10.8965 15.0673 11.2327 15.277 11.5895M11.4972 6.5944L13.4946 4.59181C15.4251 2.65632 18.5591 2.65226 20.4946 4.58276C22.4301 6.51325 22.4341 9.64726 20.5036 11.5828L18.5062 13.5853C16.5757 15.5208 13.4417 15.5249 11.5062 13.5944C11.1995 13.2884 10.9412 12.9523 10.7315 12.5954" stroke="white" stroke-width="1.8" stroke-linecap="round" stroke-linejoin="round"/>
</svg>
