<svg width="25" height="25" viewBox="0 0 25 25" fill="none" xmlns="http://www.w3.org/2000/svg">
<path d="M0.669045 1.57432C0.989715 1.09197 1.6407 0.960894 2.12306 1.28156L6.84661 4.42178C7.07036 4.57053 7.22849 4.79948 7.28837 5.06141L9.73865 15.7784L18.6045 15.7669L19.2187 13.6686L12.0451 13.6779C11.4659 13.6786 10.9957 13.2097 10.995 12.6305C10.9942 12.0512 11.4632 11.5811 12.0424 11.5803L19.8329 11.5702L20.6007 8.94733L12.039 8.9584C11.4598 8.95915 10.9896 8.49021 10.9889 7.91099C10.9881 7.33177 11.457 6.86161 12.0363 6.86086L21.9996 6.84796C22.3301 6.84754 22.6415 7.00295 22.8399 7.26733C23.0382 7.53172 23.1004 7.87415 23.0075 8.19136L20.3971 17.1093C20.2664 17.5558 19.8572 17.8629 19.3919 17.8635L8.9042 17.8771C8.41453 17.8777 7.98959 17.5394 7.88045 17.062L5.33686 5.93687L0.961804 3.02833C0.479447 2.70766 0.348374 2.05668 0.669045 1.57432Z" fill="white"/>
<path d="M11.5299 20.7578C11.5312 21.7714 10.7105 22.5942 9.69689 22.5955C8.68325 22.5968 7.86047 21.7762 7.85916 20.7625C7.85785 19.7489 8.6785 18.9261 9.69214 18.9248C10.7058 18.9235 11.5286 19.7441 11.5299 20.7578Z" fill="white"/>
<path d="M20.4444 20.7462C20.4458 21.7599 19.6251 22.5826 18.6115 22.584C17.5978 22.5853 16.775 21.7646 16.7737 20.751C16.7724 19.7373 17.5931 18.9146 18.6067 18.9133C19.6204 18.9119 20.4431 19.7326 20.4444 20.7462Z" fill="white"/>
</svg>
