<svg width="28" height="28" viewBox="0 0 28 28" fill="none" xmlns="http://www.w3.org/2000/svg">
<path d="M15.1668 25.9423H10.5002C7.40154 25.9423 5.33315 25.278 4.02797 23.9728C2.72278 22.6677 2.0585 20.5993 2.0585 17.5007V10.5007C2.0585 7.40203 2.72278 5.33364 4.02797 4.02846C5.33315 2.72327 7.40154 2.05898 10.5002 2.05898H17.5002C20.5988 2.05898 22.6672 2.72327 23.9724 4.02846C25.2775 5.33364 25.9418 7.40203 25.9418 10.5007V15.1673C25.9418 15.3143 25.8138 15.4423 25.6668 15.4423C25.5199 15.4423 25.3918 15.3143 25.3918 15.1673V10.5007C25.3918 7.76915 24.9122 5.73875 23.5871 4.41368C22.2621 3.0886 20.2317 2.60898 17.5002 2.60898H10.5002C7.76866 2.60898 5.73827 3.0886 4.41319 4.41368C3.08811 5.73875 2.6085 7.76915 2.6085 10.5007V17.5007C2.6085 20.2322 3.08811 22.2626 4.41319 23.5876C5.73827 24.9127 7.76866 25.3923 10.5002 25.3923H15.1668C15.3138 25.3923 15.4418 25.5204 15.4418 25.6673C15.4418 25.8143 15.3138 25.9423 15.1668 25.9423Z" fill="#005DD0" stroke="#005DD0" stroke-width="1.2"/>
<path d="M15.1668 25.9423H10.5002C7.40154 25.9423 5.33315 25.278 4.02797 23.9728C2.72278 22.6677 2.0585 20.5993 2.0585 17.5007V10.5007C2.0585 7.40203 2.72278 5.33364 4.02797 4.02846C5.33315 2.72327 7.40154 2.05898 10.5002 2.05898H17.5002C20.5988 2.05898 22.6672 2.72327 23.9724 4.02846C25.2775 5.33364 25.9418 7.40203 25.9418 10.5007V15.1673C25.9418 15.3143 25.8138 15.4423 25.6668 15.4423C25.5199 15.4423 25.3918 15.3143 25.3918 15.1673V10.5007C25.3918 7.76915 24.9122 5.73875 23.5871 4.41368C22.2621 3.0886 20.2317 2.60898 17.5002 2.60898H10.5002C7.76866 2.60898 5.73827 3.0886 4.41319 4.41368C3.08811 5.73875 2.6085 7.76915 2.6085 10.5007V17.5007C2.6085 20.2322 3.08811 22.2626 4.41319 23.5876C5.73827 24.9127 7.76866 25.3923 10.5002 25.3923H15.1668C15.3138 25.3923 15.4418 25.5204 15.4418 25.6673C15.4418 25.8143 15.3138 25.9423 15.1668 25.9423Z" fill="#005DD0" stroke="#005DD0" stroke-width="1.2"/>
<path d="M8.1665 16.5376C8.01954 16.5376 7.8915 16.4095 7.8915 16.2626V12.5176C7.8915 12.3706 8.01954 12.2426 8.1665 12.2426C8.31347 12.2426 8.4415 12.3706 8.4415 12.5176V16.2626C8.4415 16.416 8.31869 16.5376 8.1665 16.5376Z" fill="#005DD0" stroke="#005DD0" stroke-width="1.2"/>
<path d="M19.8335 17.1376C19.3552 17.1376 18.9585 16.7409 18.9585 16.2626V12.5176C18.9585 12.0392 19.3552 11.6426 19.8335 11.6426C20.3118 11.6426 20.7085 12.0392 20.7085 12.5176V16.2626C20.7085 16.7526 20.3118 17.1376 19.8335 17.1376Z" fill="#005DD0"/>
<path d="M15.1668 26.5423H10.5002C4.16516 26.5423 1.4585 23.8357 1.4585 17.5007V10.5007C1.4585 4.16565 4.16516 1.45898 10.5002 1.45898H17.5002C23.8352 1.45898 26.5418 4.16565 26.5418 10.5007V15.1673C26.5418 15.6457 26.1452 16.0423 25.6668 16.0423C25.1885 16.0423 24.7918 15.6457 24.7918 15.1673V10.5007C24.7918 5.12232 22.8785 3.20898 17.5002 3.20898H10.5002C5.12183 3.20898 3.2085 5.12232 3.2085 10.5007V17.5007C3.2085 22.879 5.12183 24.7923 10.5002 24.7923H15.1668C15.6452 24.7923 16.0418 25.189 16.0418 25.6673C16.0418 26.1457 15.6452 26.5423 15.1668 26.5423Z" fill="#005DD0"/>
<path d="M20.5098 25.3754C20.2765 25.3754 20.0548 25.2821 19.8915 25.1188L18.0482 23.2871C17.7098 22.9488 17.6982 22.3888 18.0482 22.0504C18.3865 21.7121 18.9465 21.7004 19.2848 22.0504L20.4632 23.2171L23.8465 19.2621C24.1615 18.8888 24.7098 18.8538 25.0832 19.1688C25.4448 19.4838 25.4915 20.0321 25.1765 20.4054L21.1865 25.0721C21.0232 25.2588 20.8015 25.3638 20.5565 25.3754C20.5332 25.3754 20.5215 25.3754 20.5098 25.3754Z" fill="#005DD0"/>
<path d="M14 16.625C13.5217 16.625 13.125 16.2283 13.125 15.75V12.25C13.125 11.7717 13.5217 11.375 14 11.375C14.4783 11.375 14.875 11.7717 14.875 12.25V15.75C14.875 16.2283 14.4783 16.625 14 16.625Z" fill="#005DD0"/>
</svg>
