<svg width="20" height="21" viewBox="0 0 20 21" fill="none" xmlns="http://www.w3.org/2000/svg">
<path d="M16.6673 6.33329V14.6666C16.6673 18 15.834 18.8333 12.5007 18.8333H7.50065C4.16732 18.8333 3.33398 18 3.33398 14.6666V6.33329C3.33398 2.99996 4.16732 2.16663 7.50065 2.16663H12.5007C15.834 2.16663 16.6673 2.99996 16.6673 6.33329Z" stroke="#444444" stroke-width="1.5" stroke-linecap="round" stroke-linejoin="round"/>
<path d="M11.6673 5.08325H8.33398" stroke="#444444" stroke-width="1.5" stroke-linecap="round" stroke-linejoin="round"/>
<path d="M10.0007 16.4166C10.714 16.4166 11.2923 15.8383 11.2923 15.1249C11.2923 14.4116 10.714 13.8333 10.0007 13.8333C9.28728 13.8333 8.70898 14.4116 8.70898 15.1249C8.70898 15.8383 9.28728 16.4166 10.0007 16.4166Z" stroke="#444444" stroke-width="1.5" stroke-linecap="round" stroke-linejoin="round"/>
</svg>
