<svg width="20" height="21" viewBox="0 0 20 21" fill="none" xmlns="http://www.w3.org/2000/svg">
<path d="M5.60768 16.918C6.29102 16.1846 7.33268 16.243 7.93268 17.043L8.77435 18.168C9.44935 19.0596 10.541 19.0596 11.216 18.168L12.0577 17.043C12.6577 16.243 13.6994 16.1846 14.3827 16.918C15.866 18.5013 17.0744 17.9763 17.0744 15.7596V6.36797C17.0827 3.00964 16.2994 2.16797 13.1493 2.16797H6.84935C3.69935 2.16797 2.91602 3.00964 2.91602 6.36797V15.7513C2.91602 17.9763 4.13268 18.493 5.60768 16.918Z" stroke="#292D32" stroke-width="1.5" stroke-linecap="round" stroke-linejoin="round"/>
<path d="M6.74607 9.66667H6.75356" stroke="#292D32" stroke-width="2" stroke-linecap="round" stroke-linejoin="round"/>
<path d="M9.08203 9.66797H13.6654" stroke="#292D32" stroke-width="1.5" stroke-linecap="round" stroke-linejoin="round"/>
<path d="M6.74607 6.33464H6.75356" stroke="#292D32" stroke-width="2" stroke-linecap="round" stroke-linejoin="round"/>
<path d="M9.08203 6.33203H13.6654" stroke="#292D32" stroke-width="1.5" stroke-linecap="round" stroke-linejoin="round"/>
</svg>
