<svg width="24" height="25" viewBox="0 0 24 25" fill="none" xmlns="http://www.w3.org/2000/svg">
<path d="M0.627425 1.50229C0.948719 1.02034 1.59987 0.890115 2.08181 1.21141L6.8013 4.35773C7.02486 4.50677 7.18269 4.73593 7.24224 4.99793L9.67864 15.7181H18.5445L19.1614 13.6205H11.9878C11.4086 13.6205 10.939 13.151 10.939 12.5718C10.939 11.9925 11.4086 11.523 11.9878 11.523H19.7783L20.5495 8.90108H11.9878C11.4086 8.90108 10.939 8.43152 10.939 7.8523C10.939 7.27308 11.4086 6.80353 11.9878 6.80353H21.9512C22.2817 6.80353 22.5929 6.95934 22.7909 7.22398C22.9889 7.48863 23.0506 7.83113 22.9573 8.14823L20.3354 17.0628C20.2041 17.5092 19.7945 17.8157 19.3292 17.8157H8.84148C8.35181 17.8157 7.9273 17.4768 7.81878 16.9993L5.28959 5.87087L0.918302 2.95668C0.43636 2.63538 0.30613 1.98423 0.627425 1.50229Z" fill="#076007"/>
<path d="M11.4634 20.6998C11.4634 21.7134 10.6417 22.5351 9.62806 22.5351C8.61442 22.5351 7.7927 21.7134 7.7927 20.6998C7.7927 19.6861 8.61442 18.8644 9.62806 18.8644C10.6417 18.8644 11.4634 19.6861 11.4634 20.6998Z" fill="#076007"/>
<path d="M20.378 20.6998C20.378 21.7134 19.5563 22.5351 18.5426 22.5351C17.529 22.5351 16.7073 21.7134 16.7073 20.6998C16.7073 19.6861 17.529 18.8644 18.5426 18.8644C19.5563 18.8644 20.378 19.6861 20.378 20.6998Z" fill="#076007"/>
</svg>
