<svg width="20" height="20" viewBox="0 0 20 20" fill="none" xmlns="http://www.w3.org/2000/svg">
<path fill-rule="evenodd" clip-rule="evenodd" d="M2.57824 2.57897C3.6903 1.46692 5.35437 1.04175 7.49935 1.04175H12.4993C14.6443 1.04175 16.3084 1.46692 17.4205 2.57897C18.5325 3.69103 18.9577 5.3551 18.9577 7.50008V12.5001C18.9577 14.6451 18.5325 16.3091 17.4205 17.4212C16.3084 18.5332 14.6443 18.9584 12.4993 18.9584H7.49935C5.35437 18.9584 3.6903 18.5332 2.57824 17.4212C1.46618 16.3091 1.04102 14.6451 1.04102 12.5001V7.50008C1.04102 5.3551 1.46618 3.69103 2.57824 2.57897ZM3.46212 3.46286C2.69918 4.2258 2.29102 5.47839 2.29102 7.50008V12.5001C2.29102 14.5218 2.69918 15.7744 3.46212 16.5373C4.22507 17.3002 5.47766 17.7084 7.49935 17.7084H12.4993C14.521 17.7084 15.7736 17.3002 16.5366 16.5373C17.2995 15.7744 17.7077 14.5218 17.7077 12.5001V7.50008C17.7077 5.47839 17.2995 4.2258 16.5366 3.46286C15.7736 2.69991 14.521 2.29175 12.4993 2.29175H7.49935C5.47766 2.29175 4.22507 2.69991 3.46212 3.46286Z" fill="#444444"/>
<path fill-rule="evenodd" clip-rule="evenodd" d="M6.25 7.5C6.25 7.15482 6.52982 6.875 6.875 6.875H13.125C13.4702 6.875 13.75 7.15482 13.75 7.5C13.75 7.84518 13.4702 8.125 13.125 8.125H6.875C6.52982 8.125 6.25 7.84518 6.25 7.5Z" fill="#444444"/>
<path fill-rule="evenodd" clip-rule="evenodd" d="M6.25 12.5C6.25 12.1548 6.52982 11.875 6.875 11.875H13.125C13.4702 11.875 13.75 12.1548 13.75 12.5C13.75 12.8452 13.4702 13.125 13.125 13.125H6.875C6.52982 13.125 6.25 12.8452 6.25 12.5Z" fill="#444444"/>
</svg>
