<svg width="21" height="20" viewBox="0 0 21 20" fill="none" xmlns="http://www.w3.org/2000/svg">
<path fill-rule="evenodd" clip-rule="evenodd" d="M1.61328 9.99935C1.61328 5.0518 5.62406 1.04102 10.5716 1.04102C15.5192 1.04102 19.5299 5.0518 19.5299 9.99935C19.5299 14.9469 15.5192 18.9577 10.5716 18.9577C5.62406 18.9577 1.61328 14.9469 1.61328 9.99935ZM4.66989 5.04044C3.54246 6.38083 2.86328 8.11077 2.86328 9.99935C2.86328 11.8879 3.54246 13.6179 4.66989 14.9583L6.74479 12.8834C6.13946 12.0812 5.77995 11.0818 5.77995 9.99935C5.77995 8.91687 6.13946 7.91751 6.74479 7.11533L4.66989 5.04044ZM8.06715 7.49489L8.04233 7.52021C7.41545 8.15968 7.02995 9.03387 7.02995 9.99935C7.02995 10.9648 7.41545 11.839 8.04233 12.4785L8.06715 12.5038L8.09247 12.5286C8.73194 13.1555 9.60613 13.541 10.5716 13.541C11.5371 13.541 12.4113 13.1555 13.0508 12.5286L13.0761 12.5038L13.1009 12.4785C13.7278 11.839 14.1133 10.9648 14.1133 9.99935C14.1133 9.03387 13.7278 8.15968 13.1009 7.52021L13.0761 7.49489L13.0508 7.47007C12.4113 6.84318 11.5371 6.45768 10.5716 6.45768C9.60613 6.45768 8.73194 6.84318 8.09247 7.47007L8.06715 7.49489ZM14.3984 7.11533C15.0038 7.91751 15.3633 8.91687 15.3633 9.99935C15.3633 11.0818 15.0038 12.0812 14.3984 12.8834L16.4733 14.9583C17.6008 13.6179 18.2799 11.8879 18.2799 9.99935C18.2799 8.11077 17.6008 6.38083 16.4733 5.04044L14.3984 7.11533ZM15.5305 4.09763C14.1901 2.9702 12.4602 2.29102 10.5716 2.29102C8.68304 2.29102 6.95309 2.9702 5.6127 4.09763L7.6876 6.17252C8.48978 5.56719 9.48914 5.20768 10.5716 5.20768C11.6541 5.20768 12.6535 5.56719 13.4556 6.17252L15.5305 4.09763ZM13.4556 13.8262L15.5305 15.9011C14.1901 17.0285 12.4602 17.7077 10.5716 17.7077C8.68304 17.7077 6.95309 17.0285 5.6127 15.9011L7.6876 13.8262C8.48978 14.4315 9.48914 14.791 10.5716 14.791C11.6541 14.791 12.6535 14.4315 13.4556 13.8262Z" fill="white"/>
</svg>
