<svg width="25" height="26" viewBox="0 0 25 26" fill="none" xmlns="http://www.w3.org/2000/svg">
<path fill-rule="evenodd" clip-rule="evenodd" d="M1.79939 13.0117C1.79153 6.93658 6.71002 2.00535 12.7851 1.99748C18.8603 1.98962 23.7915 6.90811 23.7994 12.9832C23.8072 19.0584 18.8887 23.9896 12.8136 23.9975C6.73849 24.0053 1.80725 19.0868 1.79939 13.0117ZM12.7877 3.99748C7.81717 4.00391 3.79296 8.03856 3.79939 13.0091C3.80582 17.9797 7.84047 22.0039 12.811 21.9975C17.7816 21.991 21.8058 17.9564 21.7994 12.9858C21.7929 8.01527 17.7583 3.99105 12.7877 3.99748ZM12.7929 7.99748C13.3452 7.99676 13.7935 8.4439 13.7942 8.99618L13.7981 11.9962L16.7981 11.9923C17.3504 11.9916 17.7987 12.4387 17.7994 12.991C17.8001 13.5433 17.353 13.9916 16.8007 13.9923L13.8007 13.9962L13.8046 16.9962C13.8053 17.5485 13.3581 17.9968 12.8059 17.9975C12.2536 17.9982 11.8053 17.551 11.8046 16.9988L11.8007 13.9988L8.80068 14.0027C8.2484 14.0034 7.8001 13.5562 7.79939 13.0039C7.79867 12.4517 8.24581 12.0034 8.79809 12.0027L11.7981 11.9988L11.7942 8.99877C11.7935 8.44649 12.2406 7.99819 12.7929 7.99748Z" fill="#1A8917"/>
<path opacity="0.3" fill-rule="evenodd" clip-rule="evenodd" d="M3.80071 13.0098C3.79428 8.0392 7.81849 4.00455 12.7891 3.99812C17.7596 3.99169 21.7943 8.0159 21.8007 12.9865C21.8071 17.957 17.7829 21.9917 12.8123 21.9981C7.84179 22.0045 3.80714 17.9803 3.80071 13.0098ZM12.7942 7.99812C13.3465 7.9974 13.7948 8.44454 13.7955 8.99682L13.7994 11.9968L16.7994 11.9929C17.3517 11.9922 17.8 12.4394 17.8007 12.9916C17.8014 13.5439 17.3543 13.9922 16.802 13.9929L13.802 13.9968L13.8059 16.9968C13.8066 17.5491 13.3595 17.9974 12.8072 17.9981C12.2549 17.9988 11.8066 17.5517 11.8059 16.9994L11.802 13.9994L8.802 14.0033C8.24972 14.004 7.80142 13.5569 7.80071 13.0046C7.79999 12.4523 8.24713 12.004 8.79941 12.0033L11.7994 11.9994L11.7955 8.99941C11.7948 8.44712 12.2419 7.99883 12.7942 7.99812Z" fill="#1A8917"/>
</svg>
