<svg width="12" height="12" viewBox="0 0 12 12" fill="none" xmlns="http://www.w3.org/2000/svg">
<path d="M7 1.46V5.615C7 6.125 6.585 6.54 6.075 6.54H1.5C1.225 6.54 1 6.315 1 6.04V2.845C1 1.825 1.825 1 2.845 1H6.535C6.795 1 7 1.205 7 1.46Z" fill="white"/>
<path d="M10.75 7.75C10.89 7.75 11 7.86 11 8V8.5C11 9.33 10.33 10 9.5 10C9.5 9.175 8.825 8.5 8 8.5C7.175 8.5 6.5 9.175 6.5 10H5.5C5.5 9.175 4.825 8.5 4 8.5C3.175 8.5 2.5 9.175 2.5 10C1.67 10 1 9.33 1 8.5V7.5C1 7.225 1.225 7 1.5 7H6.25C6.94 7 7.5 6.44 7.5 5.75V3C7.5 2.725 7.725 2.5 8 2.5H8.42C8.78 2.5 9.11 2.695 9.29 3.005L9.61 3.565C9.655 3.645 9.595 3.75 9.5 3.75C8.81 3.75 8.25 4.31 8.25 5V6.5C8.25 7.19 8.81 7.75 9.5 7.75H10.75Z" fill="white"/>
<path d="M4 11C4.55228 11 5 10.5523 5 10C5 9.44772 4.55228 9 4 9C3.44772 9 3 9.44772 3 10C3 10.5523 3.44772 11 4 11Z" fill="white"/>
<path d="M8 11C8.55228 11 9 10.5523 9 10C9 9.44772 8.55228 9 8 9C7.44772 9 7 9.44772 7 10C7 10.5523 7.44772 11 8 11Z" fill="white"/>
<path d="M11 6.265V7H9.5C9.225 7 9 6.775 9 6.5V5C9 4.725 9.225 4.5 9.5 4.5H10.145L10.87 5.77C10.955 5.92 11 6.09 11 6.265Z" fill="white"/>
</svg>
