<svg width="20" height="20" viewBox="0 0 20 20" fill="none" xmlns="http://www.w3.org/2000/svg">
<path d="M9.99935 9.99992C5.39699 9.99992 1.66602 13.7309 1.66602 18.3333C1.66602 18.7935 2.03911 19.1666 2.49935 19.1666C2.95959 19.1666 3.33268 18.7935 3.33268 18.3333C3.33268 14.6514 6.31746 11.6666 9.99935 11.6666C13.6812 11.6666 16.666 14.6514 16.666 18.3333C16.666 18.7935 17.0391 19.1666 17.4993 19.1666C17.9596 19.1666 18.3327 18.7935 18.3327 18.3333C18.3327 13.7309 14.6017 9.99992 9.99935 9.99992Z" fill="#444444"/>
<path fill-rule="evenodd" clip-rule="evenodd" d="M10.0007 7.66659C11.4734 7.66659 12.6673 6.47268 12.6673 4.99992C12.6673 3.52716 11.4734 2.33325 10.0007 2.33325C8.52789 2.33325 7.33398 3.52716 7.33398 4.99992C7.33398 6.47268 8.52789 7.66659 10.0007 7.66659ZM10.0007 9.16659C12.3018 9.16659 14.1673 7.30111 14.1673 4.99992C14.1673 2.69873 12.3018 0.833252 10.0007 0.833252C7.69946 0.833252 5.83398 2.69873 5.83398 4.99992C5.83398 7.30111 7.69946 9.16659 10.0007 9.16659Z" fill="#444444"/>
</svg>
