<svg width="16" height="17" viewBox="0 0 16 17" fill="none" xmlns="http://www.w3.org/2000/svg">
<path d="M6.01301 2.6187L2.41967 5.4187C1.81967 5.88537 1.33301 6.8787 1.33301 7.63204V12.572C1.33301 14.1187 2.59301 15.3854 4.13967 15.3854H11.8597C13.4063 15.3854 14.6663 14.1187 14.6663 12.5787V7.72537C14.6663 6.9187 14.1263 5.88537 13.4663 5.42537L9.34634 2.5387C8.41301 1.88537 6.91301 1.9187 6.01301 2.6187Z" stroke="#1A8917" stroke-linecap="round" stroke-linejoin="round"/>
<path d="M7 12.7246H9C10.1 12.7246 11 11.8246 11 10.7246V8.72461C11 7.62461 10.1 6.72461 9 6.72461H7C5.9 6.72461 5 7.62461 5 8.72461V10.7246C5 11.8246 5.9 12.7246 7 12.7246Z" stroke="#1A8917" stroke-linecap="round" stroke-linejoin="round"/>
<path d="M8 6.72461V12.7246" stroke="#1A8917" stroke-linecap="round" stroke-linejoin="round"/>
<path d="M5 9.72461H11" stroke="#1A8917" stroke-linecap="round" stroke-linejoin="round"/>
</svg>
