<svg width="16" height="17" viewBox="0 0 16 17" fill="none" xmlns="http://www.w3.org/2000/svg">
<path d="M11.333 14.7357H4.66634C2.23301 14.7357 0.833008 13.3357 0.833008 10.9023V6.23568C0.833008 3.80234 2.23301 2.40234 4.66634 2.40234H11.333C13.7663 2.40234 15.1663 3.80234 15.1663 6.23568V10.9023C15.1663 13.3357 13.7663 14.7357 11.333 14.7357ZM4.66634 3.40234C2.75967 3.40234 1.83301 4.32901 1.83301 6.23568V10.9023C1.83301 12.809 2.75967 13.7357 4.66634 13.7357H11.333C13.2397 13.7357 14.1663 12.809 14.1663 10.9023V6.23568C14.1663 4.32901 13.2397 3.40234 11.333 3.40234H4.66634Z" fill="#1A8917"/>
<path d="M8.00018 9.14834C7.44018 9.14834 6.87351 8.97501 6.44018 8.62167L4.35351 6.95501C4.14018 6.78167 4.10018 6.46834 4.27351 6.25501C4.44685 6.04167 4.76018 6.00168 4.97352 6.17501L7.06017 7.84168C7.56684 8.24834 8.42684 8.24834 8.93351 7.84168L11.0202 6.17501C11.2335 6.00168 11.5535 6.03501 11.7202 6.25501C11.8935 6.46834 11.8602 6.78834 11.6402 6.95501L9.55351 8.62167C9.12685 8.97501 8.56018 9.14834 8.00018 9.14834Z" fill="#1A8917"/>
</svg>
