<svg width="24" height="25" viewBox="0 0 24 25" fill="none" xmlns="http://www.w3.org/2000/svg">
<path d="M13 9.03516H7" stroke="#292D32" stroke-width="1.5" stroke-linecap="round" stroke-linejoin="round"/>
<path d="M22.0002 11.0043V13.0644C22.0002 13.6144 21.5602 14.0644 21.0002 14.0844H19.0402C17.9602 14.0844 16.9702 13.2944 16.8802 12.2144C16.8202 11.5844 17.0602 10.9944 17.4802 10.5844C17.8502 10.2044 18.3602 9.98438 18.9202 9.98438H21.0002C21.5602 10.0044 22.0002 10.4543 22.0002 11.0043Z" stroke="#292D32" stroke-width="1.5" stroke-linecap="round" stroke-linejoin="round"/>
<path d="M17.48 10.5851C17.06 10.9951 16.82 11.5851 16.88 12.2151C16.97 13.2951 17.96 14.0851 19.04 14.0851H21V15.5352C21 18.5352 19 20.5352 16 20.5352H7C4 20.5352 2 18.5352 2 15.5352V8.53516C2 5.81516 3.64 3.91515 6.19 3.59515C6.45 3.55515 6.72 3.53516 7 3.53516H16C16.26 3.53516 16.51 3.54514 16.75 3.58514C19.33 3.88514 21 5.79516 21 8.53516V9.98517H18.92C18.36 9.98517 17.85 10.2051 17.48 10.5851Z" stroke="#292D32" stroke-width="1.5" stroke-linecap="round" stroke-linejoin="round"/>
</svg>
